{
  "accessors": [
    {
      "bufferView": 0,
      "componentType": 5126,
      "count": 968,
      "max": [
        0.9990198612213135,
        0.10000003129243851,
        0.9990198612213135
      ],
      "min": [
        -0.9990198612213135,
        -0.10000000894069672,
        -0.9990198612213135
      ],
      "type": "VEC3"
    },
    {
      "bufferView": 1,
      "componentType": 5126,
      "count": 968,
      "type": "VEC3"
    },
    {
      "bufferView": 2,
      "componentType": 5126,
      "count": 968,
      "type": "VEC2"
    },
    {
      "bufferView": 3,
      "componentType": 5123,
      "count": 1536,
      "type": "SCALAR"
    },
    {
      "bufferView": 4,
      "componentType": 5126,
      "count": 192,
      "max": [
        0.800000011920929,
        0.20000000298023224,
        0.800000011920929
      ],
      "min": [
        -0.800000011920929,
        -0.20000000298023224,
        -0.800000011920929
      ],
      "type": "VEC3"
    },
    {
      "bufferView": 5,
      "componentType": 5126,
      "count": 192,
      "type": "VEC3"
    },
    {
      "bufferView": 6,
      "componentType": 5126,
      "count": 192,
      "type": "VEC2"
    },
    {
      "bufferView": 7,
      "componentType": 5123,
      "count": 372,
      "type": "SCALAR"
    }
  ],
  "asset": {
    "generator": "Khronos Blender glTF 2.0 I/O",
    "version": "2.0"
  },
  "bufferViews": [
    {
      "buffer": 0,
      "byteLength": 11616,
      "byteOffset": 0
    },
    {
      "buffer": 0,
      "byteLength": 11616,
      "byteOffset": 11616
    },
    {
      "buffer": 0,
      "byteLength": 7744,
      "byteOffset": 23232
    },
    {
      "buffer": 0,
      "byteLength": 3072,
      "byteOffset": 30976
    },
    {
      "buffer": 0,
      "byteLength": 2304,
      "byteOffset": 34048
    },
    {
      "buffer": 0,
      "byteLength": 2304,
      "byteOffset": 36352
    },
    {
      "buffer": 0,
      "byteLength": 1536,
      "byteOffset": 38656
    },
    {
      "buffer": 0,
      "byteLength": 744,
      "byteOffset": 40192
    }
  ],
  "buffers": [
    {
      "uri": "donut_data.bin",
      "byteLength": 40936
    }
  ],
  "extensions": {},
  "meshes": [
    {
      "name": "Cylinder",
      "primitives": [
        {
          "attributes": {
            "NORMAL": 1,
            "POSITION": 0,
            "TEXCOORD_0": 2
          },
          "indices": 3
        }
      ]
    },
    {
      "name": "Cylinder.001",
      "primitives": [
        {
          "attributes": {
            "NORMAL": 5,
            "POSITION": 4,
            "TEXCOORD_0": 6
          },
          "indices": 7
        }
      ]
    }
  ],
  "nodes": [
    {
      "mesh": 0,
      "name": "OuterCylinder"
    },
    {
      "mesh": 1,
      "name": "InnerCylinder"
    }
  ],
  "scene": 0,
  "scenes": [
    {
      "name": "Scene",
      "nodes": [
        0,
        1
      ]
    }
  ]
}