{
  "accessors": [
    {
      "bufferView": 0,
      "componentType": 5126,
      "count": 1330,
      "max": [
        0.9975923895835876,
        0.20000000298023224,
        0.9975923895835876
      ],
      "min": [
        -0.9975923895835876,
        -0.20000000298023224,
        -0.9975923895835876
      ],
      "type": "VEC3"
    },
    {
      "bufferView": 1,
      "componentType": 5126,
      "count": 1330,
      "type": "VEC3"
    },
    {
      "bufferView": 2,
      "componentType": 5126,
      "count": 1330,
      "type": "VEC2"
    },
    {
      "bufferView": 3,
      "componentType": 5123,
      "count": 2058,
      "type": "SCALAR"
    }
  ],
  "asset": {
    "generator": "Khronos Blender glTF 2.0 I/O",
    "version": "2.0"
  },
  "bufferViews": [
    {
      "buffer": 0,
      "byteLength": 15960,
      "byteOffset": 0
    },
    {
      "buffer": 0,
      "byteLength": 15960,
      "byteOffset": 15960
    },
    {
      "buffer": 0,
      "byteLength": 10640,
      "byteOffset": 31920
    },
    {
      "buffer": 0,
      "byteLength": 4116,
      "byteOffset": 42560
    }
  ],
  "buffers": [
    {
      "uri": "platter_data.bin",
      "byteLength": 46676
    }
  ],
  "extensions": {},
  "materials": [
    {
      "name": "GreenMaterial",
      "pbrMetallicRoughness": {
        "baseColorFactor": [
          0,
          0.6938719153404236,
          0.6444798707962036,
          1
        ],
        "metallicFactor": 1,
        "roughnessFactor": 0.4000000059604645
      }
    }
  ],
  "meshes": [
    {
      "name": "Cylinder.001",
      "primitives": [
        {
          "attributes": {
            "NORMAL": 1,
            "POSITION": 0,
            "TEXCOORD_0": 2
          },
          "indices": 3,
          "material": 0
        }
      ]
    }
  ],
  "nodes": [
    {
      "mesh": 0,
      "name": "Cylinder"
    }
  ],
  "scene": 0,
  "scenes": [
    {
      "name": "Scene",
      "nodes": [
        0
      ]
    }
  ]
}