{
  "accessors": [
    {
      "bufferView": 0,
      "componentType": 5126,
      "count": 2315,
      "max": [
        1.9037740230560303,
        -0.4592967629432678,
        0.20000000298023224
      ],
      "min": [
        -1.903774619102478,
        -1.998528003692627,
        -0.20000000298023224
      ],
      "type": "VEC3"
    },
    {
      "bufferView": 1,
      "componentType": 5126,
      "count": 2315,
      "type": "VEC3"
    },
    {
      "bufferView": 2,
      "componentType": 5126,
      "count": 2315,
      "type": "VEC2"
    },
    {
      "bufferView": 3,
      "componentType": 5123,
      "count": 2532,
      "type": "SCALAR"
    },
    {
      "bufferView": 4,
      "componentType": 5126,
      "count": 1126,
      "max": [
        0.9950991868972778,
        0.9950991868972778,
        0.20000000298023224
      ],
      "min": [
        -0.9950991868972778,
        -0.9950991868972778,
        -0.20000000298023224
      ],
      "type": "VEC3"
    },
    {
      "bufferView": 5,
      "componentType": 5126,
      "count": 1126,
      "type": "VEC3"
    },
    {
      "bufferView": 6,
      "componentType": 5126,
      "count": 1126,
      "type": "VEC2"
    },
    {
      "bufferView": 7,
      "componentType": 5123,
      "count": 1140,
      "type": "SCALAR"
    },
    {
      "bufferView": 8,
      "componentType": 5126,
      "count": 2332,
      "max": [
        1.9071428775787354,
        -0.5199320316314697,
        0.20000000298023224
      ],
      "min": [
        -1.907143473625183,
        -1.999018669128418,
        -0.20000000298023224
      ],
      "type": "VEC3"
    },
    {
      "bufferView": 9,
      "componentType": 5126,
      "count": 2332,
      "type": "VEC3"
    },
    {
      "bufferView": 10,
      "componentType": 5126,
      "count": 2332,
      "type": "VEC2"
    },
    {
      "bufferView": 11,
      "componentType": 5123,
      "count": 2532,
      "type": "SCALAR"
    },
    {
      "bufferView": 12,
      "componentType": 5126,
      "count": 2346,
      "max": [
        1.9071428775787354,
        -0.4862457513809204,
        0.20000000298023224
      ],
      "min": [
        -1.907143473625183,
        -1.999018669128418,
        -0.20000000298023224
      ],
      "type": "VEC3"
    },
    {
      "bufferView": 13,
      "componentType": 5126,
      "count": 2346,
      "type": "VEC3"
    },
    {
      "bufferView": 14,
      "componentType": 5126,
      "count": 2346,
      "type": "VEC2"
    },
    {
      "bufferView": 15,
      "componentType": 5123,
      "count": 2532,
      "type": "SCALAR"
    }
  ],
  "asset": {
    "generator": "Khronos Blender glTF 2.0 I/O",
    "version": "2.0"
  },
  "bufferViews": [
    {
      "buffer": 0,
      "byteLength": 27780,
      "byteOffset": 0
    },
    {
      "buffer": 0,
      "byteLength": 27780,
      "byteOffset": 27780
    },
    {
      "buffer": 0,
      "byteLength": 18520,
      "byteOffset": 55560
    },
    {
      "buffer": 0,
      "byteLength": 5064,
      "byteOffset": 74080
    },
    {
      "buffer": 0,
      "byteLength": 13512,
      "byteOffset": 79144
    },
    {
      "buffer": 0,
      "byteLength": 13512,
      "byteOffset": 92656
    },
    {
      "buffer": 0,
      "byteLength": 9008,
      "byteOffset": 106168
    },
    {
      "buffer": 0,
      "byteLength": 2280,
      "byteOffset": 115176
    },
    {
      "buffer": 0,
      "byteLength": 27984,
      "byteOffset": 117456
    },
    {
      "buffer": 0,
      "byteLength": 27984,
      "byteOffset": 145440
    },
    {
      "buffer": 0,
      "byteLength": 18656,
      "byteOffset": 173424
    },
    {
      "buffer": 0,
      "byteLength": 5064,
      "byteOffset": 192080
    },
    {
      "buffer": 0,
      "byteLength": 28152,
      "byteOffset": 197144
    },
    {
      "buffer": 0,
      "byteLength": 28152,
      "byteOffset": 225296
    },
    {
      "buffer": 0,
      "byteLength": 18768,
      "byteOffset": 253448
    },
    {
      "buffer": 0,
      "byteLength": 5064,
      "byteOffset": 272216
    }
  ],
  "buffers": [
    {
      "uri": "wifi_data.bin",
      "byteLength": 277280
    }
  ],
  "extensions": {},
  "materials": [
    {
      "name": "MaterialWiFi",
      "pbrMetallicRoughness": {
        "baseColorFactor": [
          0,
          0.7396742105484009,
          0.8000000715255737,
          1
        ],
        "metallicFactor": 0,
        "roughnessFactor": 0.5
      }
    }
  ],
  "meshes": [
    {
      "name": "Cylinder.004",
      "primitives": [
        {
          "attributes": {
            "NORMAL": 1,
            "POSITION": 0,
            "TEXCOORD_0": 2
          },
          "indices": 3,
          "material": 0
        }
      ]
    },
    {
      "name": "Cylinder.000",
      "primitives": [
        {
          "attributes": {
            "NORMAL": 5,
            "POSITION": 4,
            "TEXCOORD_0": 6
          },
          "indices": 7,
          "material": 0
        }
      ]
    },
    {
      "name": "Cylinder.001",
      "primitives": [
        {
          "attributes": {
            "NORMAL": 9,
            "POSITION": 8,
            "TEXCOORD_0": 10
          },
          "indices": 11,
          "material": 0
        }
      ]
    },
    {
      "name": "Cylinder.002",
      "primitives": [
        {
          "attributes": {
            "NORMAL": 13,
            "POSITION": 12,
            "TEXCOORD_0": 14
          },
          "indices": 15,
          "material": 0
        }
      ]
    }
  ],
  "nodes": [
    {
      "mesh": 0,
      "name": "circle1",
      "rotation": [
        0.7071068286895752,
        0,
        0,
        0.7071067094802856
      ]
    },
    {
      "mesh": 1,
      "name": "wifiBase",
      "rotation": [
        0.7071068286895752,
        0,
        0,
        0.7071067094802856
      ]
    },
    {
      "mesh": 2,
      "name": "circle3",
      "rotation": [
        0.7071068286895752,
        0,
        0,
        0.7071067094802856
      ],
      "scale": [
        1.9485539197921753,
        1.9485540390014648,
        1.001526951789856
      ],
      "translation": [
        0,
        0,
        -0.18906769156455994
      ]
    },
    {
      "mesh": 3,
      "name": "circle2",
      "rotation": [
        0.7071068286895752,
        0,
        0,
        0.7071067094802856
      ],
      "scale": [
        1.4797314405441284,
        1.4797314405441284,
        0.9969093203544617
      ],
      "translation": [
        0,
        0,
        -0.1000000387430191
      ]
    },
    {
      "name": "Light",
      "rotation": [
        0.16907575726509094,
        0.7558802962303162,
        -0.27217137813568115,
        0.570947527885437
      ],
      "translation": [
        4.076245307922363,
        5.903861999511719,
        -1.0054539442062378
      ]
    },
    {
      "name": "Camera",
      "rotation": [
        0.483536034822464,
        0.33687159419059753,
        -0.20870360732078552,
        0.7804827094078064
      ],
      "translation": [
        7.358891487121582,
        4.958309173583984,
        6.925790786743164
      ]
    }
  ],
  "scene": 0,
  "scenes": [
    {
      "name": "Scene",
      "nodes": [
        0,
        1,
        2,
        3,
        4,
        5
      ]
    }
  ]
}